<?xml version="1.0" standalone="no"?>
<!DOCTYPE svg PUBLIC "-//W3C//DTD SVG 20010904//EN"
 "http://www.w3.org/TR/2001/REC-SVG-20010904/DTD/svg10.dtd">
<svg version="1.0" xmlns="http://www.w3.org/2000/svg"
 width="600.000000pt" height="100.000000pt" viewBox="0 0 600.000000 100.000000"
 preserveAspectRatio="xMidYMid meet">

<g transform="translate(0.000000,100.000000) scale(0.100000,-0.100000)"
fill="#000000" stroke="none">
<path d="M230 679 c0 -124 3 -180 11 -177 6 2 10 7 10 11 -1 4 -1 84 -1 177 0
107 -4 170 -10 170 -6 0 -10 -67 -10 -181z"/>
<path d="M530 680 c0 -153 2 -180 15 -180 13 0 15 27 15 180 0 153 -2 180 -15
180 -13 0 -15 -27 -15 -180z"/>
<path d="M842 498 c2 -278 6 -362 16 -366 9 -3 12 74 12 362 0 320 -2 366 -15
366 -13 0 -15 -44 -13 -362z"/>
<path d="M1150 680 c0 -153 2 -180 15 -180 13 0 15 27 15 180 0 153 -2 180
-15 180 -13 0 -15 -27 -15 -180z"/>
<path d="M1460 680 c0 -153 2 -180 15 -180 13 0 15 27 15 180 0 153 -2 180
-15 180 -13 0 -15 -27 -15 -180z"/>
<path d="M1770 680 c0 -113 4 -180 10 -180 6 0 10 67 10 180 0 113 -4 180 -10
180 -6 0 -10 -67 -10 -180z"/>
<path d="M2070 680 c1 -148 4 -180 16 -180 12 0 14 31 14 180 0 155 -2 180
-15 180 -14 0 -16 -24 -15 -180z"/>
<path d="M2382 498 c2 -278 6 -362 16 -366 9 -3 12 74 12 362 0 320 -2 366
-15 366 -13 0 -15 -44 -13 -362z"/>
<path d="M2690 680 c0 -153 2 -180 15 -180 13 0 15 27 15 180 0 153 -2 180
-15 180 -13 0 -15 -27 -15 -180z"/>
<path d="M3000 680 c0 -153 2 -180 15 -180 13 0 15 27 15 180 0 153 -2 180
-15 180 -13 0 -15 -27 -15 -180z"/>
<path d="M3310 679 c0 -124 3 -180 11 -177 6 2 10 7 10 11 -1 4 -1 84 -1 177
0 107 -4 170 -10 170 -6 0 -10 -67 -10 -181z"/>
<path d="M3610 680 c0 -153 2 -180 15 -180 13 0 15 27 15 180 0 153 -2 180
-15 180 -13 0 -15 -27 -15 -180z"/>
<path d="M3922 498 c2 -278 6 -362 16 -366 9 -3 12 74 12 362 0 320 -2 366
-15 366 -13 0 -15 -44 -13 -362z"/>
<path d="M4230 680 c0 -153 2 -180 15 -180 13 0 15 27 15 180 0 153 -2 180
-15 180 -13 0 -15 -27 -15 -180z"/>
<path d="M4540 680 c0 -153 2 -180 15 -180 13 0 15 27 15 180 0 153 -2 180
-15 180 -13 0 -15 -27 -15 -180z"/>
<path d="M4850 680 c0 -113 4 -180 10 -180 6 0 10 67 10 180 0 113 -4 180 -10
180 -6 0 -10 -67 -10 -180z"/>
<path d="M5150 680 c0 -153 2 -180 15 -180 13 0 15 27 15 180 0 153 -2 180
-15 180 -13 0 -15 -27 -15 -180z"/>
<path d="M5462 498 c2 -278 6 -362 16 -366 9 -3 12 74 12 362 0 320 -2 366
-15 366 -13 0 -15 -44 -13 -362z"/>
<path d="M5770 680 c0 -153 2 -180 15 -180 13 0 15 27 15 180 0 153 -2 180
-15 180 -13 0 -15 -27 -15 -180z"/>
</g>
</svg>
